<?xml version="1.0" encoding="UTF-8" standalone="no"?>
<svg
   xmlns:dc="http://purl.org/dc/elements/1.1/"
   xmlns:cc="http://creativecommons.org/ns#"
   xmlns:rdf="http://www.w3.org/1999/02/22-rdf-syntax-ns#"
   xmlns:svg="http://www.w3.org/2000/svg"
   xmlns="http://www.w3.org/2000/svg"
   viewBox="0 0 571.7558 118.66567"
   height="118.66567"
   width="571.7558"
   xml:space="preserve"
   id="svg3713"
   version="1.1"><metadata
     id="metadata3719"><rdf:RDF><cc:Work
         rdf:about=""><dc:format>image/svg+xml</dc:format><dc:type
           rdf:resource="http://purl.org/dc/dcmitype/StillImage" /><dc:title></dc:title></cc:Work></rdf:RDF></metadata><defs
     id="defs3717"><clipPath
       id="clipPath3729"
       clipPathUnits="userSpaceOnUse"><path
         id="path3727"
         d="M 0,656.693 H 656.693 V 0 H 0 Z" /></clipPath></defs><g
     transform="matrix(1.3333333,0,0,-1.3333333,-151.95403,497.129)"
     id="g3721"><g
       id="g3723"><g
         clip-path="url(#clipPath3729)"
         id="g3725"><g
           transform="translate(390.5625,324.6152)"
           id="g3731"><path
             id="path3733"
             style="fill:#2d2a2d;fill-opacity:1;fill-rule:nonzero;stroke:none"
             d="m 0,0 c -6.282,-0.248 -11.563,4.645 -11.813,10.929 -0.246,6.272 4.643,11.563 10.921,11.806 6.28,0.243 11.563,-4.649 11.809,-10.922 C 11.161,5.537 6.272,0.246 0,0 m 17.751,20.755 c -2.922,6.16 -8.439,10.148 -14.547,11.252 -8.438,1.526 -7.73,3.917 -8.533,6.589 -2.031,6.763 -4.549,8.5 -6.82,9.104 -1.127,0.382 -2.331,0.573 -3.586,0.524 -5.532,-0.215 -9.836,-4.876 -9.623,-10.405 0.032,-0.795 0.164,-1.565 0.368,-2.298 0.216,-0.897 0.528,-1.808 1.032,-2.626 0.689,-1.112 2.483,-2.67 2.691,-2.868 3.1,-2.976 3.17,-6.926 1.698,-10.957 -1.963,-5.382 -1.647,-11.556 1.398,-16.935 3.859,-6.817 11.092,-10.537 18.416,-10.257 3.582,0.142 7.184,1.233 10.426,3.39 8.31,5.516 11.363,16.478 7.08,25.487" /></g><g
           transform="translate(393.8525,336.1265)"
           id="g3735"><path
             id="path3737"
             style="fill:#000000;fill-opacity:1;fill-rule:nonzero;stroke:none"
             d="M 0,0 C -0.085,2.065 -1.821,3.677 -3.888,3.597 -5.949,3.512 -7.562,1.772 -7.477,-0.288 -7.396,-2.354 -5.657,-3.959 -3.592,-3.879 -1.53,-3.799 0.075,-2.062 0,0" /></g><g
           transform="translate(396.873,365.5332)"
           id="g3739"><path
             id="path3741"
             style="fill:#2d2a2d;fill-opacity:1;fill-rule:nonzero;stroke:none"
             d="m 0,0 c -0.08,1.987 -1.751,3.537 -3.739,3.459 -1.981,-0.08 -3.532,-1.753 -3.454,-3.735 0.08,-1.99 1.754,-3.536 3.738,-3.458 C -1.468,-3.656 0.077,-1.985 0,0" /></g><g
           transform="translate(139.3311,324.6152)"
           id="g3743"><path
             id="path3745"
             style="fill:#2d2a2d;fill-opacity:1;fill-rule:nonzero;stroke:none"
             d="M 0,0 C -6.283,-0.248 -11.564,4.645 -11.813,10.929 -12.059,17.201 -7.17,22.492 -0.892,22.735 5.388,22.978 10.67,18.086 10.917,11.813 11.162,5.537 6.272,0.246 0,0 m 17.751,20.755 c -2.922,6.16 -8.44,10.148 -14.546,11.252 -8.439,1.526 -7.731,3.917 -8.534,6.589 -2.032,6.763 -4.549,8.5 -6.82,9.104 -1.128,0.382 -2.331,0.573 -3.587,0.524 -5.531,-0.215 -9.835,-4.876 -9.622,-10.405 0.032,-0.795 0.164,-1.565 0.368,-2.298 0.215,-0.897 0.528,-1.808 1.032,-2.626 0.69,-1.112 2.483,-2.67 2.691,-2.868 3.1,-2.976 3.171,-6.926 1.698,-10.957 -1.963,-5.382 -1.647,-11.556 1.398,-16.935 3.86,-6.817 11.092,-10.537 18.416,-10.257 3.582,0.142 7.184,1.233 10.425,3.39 8.312,5.516 11.364,16.478 7.081,25.487" /></g><g
           transform="translate(142.6201,336.1265)"
           id="g3747"><path
             id="path3749"
             style="fill:#000000;fill-opacity:1;fill-rule:nonzero;stroke:none"
             d="m 0,0 c -0.084,2.065 -1.821,3.677 -3.887,3.597 -2.061,-0.085 -3.674,-1.825 -3.59,-3.885 0.082,-2.066 1.82,-3.671 3.886,-3.591 C -1.53,-3.799 0.076,-2.062 0,0" /></g><g
           transform="translate(145.6416,365.5332)"
           id="g3751"><path
             id="path3753"
             style="fill:#2d2a2d;fill-opacity:1;fill-rule:nonzero;stroke:none"
             d="m 0,0 c -0.08,1.987 -1.752,3.537 -3.739,3.459 -1.982,-0.08 -3.533,-1.753 -3.454,-3.735 0.08,-1.99 1.753,-3.536 3.737,-3.458 C -1.468,-3.656 0.077,-1.985 0,0" /></g><g
           transform="translate(239.7656,334.4707)"
           id="g3755"><path
             id="path3757"
             style="fill:#2d2a2d;fill-opacity:1;fill-rule:nonzero;stroke:none"
             d="M 0,0 -5.347,16.759 -10.694,0 Z m 3.134,-9.781 h -16.963 l -2.283,-7.177 H -27.52 l 15.518,45.656 H 1.306 L 16.83,-16.958 H 5.417 Z" /></g><g
           transform="translate(298.7598,352.1831)"
           id="g3759"><path
             id="path3761"
             style="fill:#2d2a2d;fill-opacity:1;fill-rule:nonzero;stroke:none"
             d="m 0,0 h -10.872 v -32.988 h -9.67 V 0 H -31.414 V 9.303 H 0 Z" /></g><g
           transform="translate(446.127,337.4771)"
           id="g3763"><path
             id="path3765"
             style="fill:#2d2a2d;fill-opacity:1;fill-rule:nonzero;stroke:none"
             d="M 0,0 V -19.964 H -10.435 V 0 l -15.328,25.691 h 11.871 l 8.677,-15.192 8.672,15.192 h 11.87 z" /></g><g
           transform="translate(506.2754,352.1831)"
           id="g3767"><path
             id="path3769"
             style="fill:#2d2a2d;fill-opacity:1;fill-rule:nonzero;stroke:none"
             d="m 0,0 h -10.872 v -32.988 h -9.673 V 0 H -31.414 V 9.303 H 0 Z" /></g><g
           transform="translate(124.8438,291.9375)"
           id="g3771"><path
             id="path3773"
             style="fill:#2d2a2d;fill-opacity:1;fill-rule:nonzero;stroke:none"
             d="M 0,0 C 0.073,2.086 -1.503,3.734 -3.594,3.734 -5.683,3.734 -7.37,2.086 -7.443,0 -7.518,-2.09 -5.941,-3.736 -3.854,-3.736 -1.763,-3.736 -0.075,-2.09 0,0 M 1.028,4.389 0.739,-3.968 C 0.65,-6.604 -1.354,-8.09 -3.776,-8.09 c -2.055,0 -3.483,0.822 -4.072,2.108 l 0.79,0.432 c 0.431,-0.929 1.382,-1.699 3.311,-1.699 2.192,0 3.539,1.285 3.608,3.281 l 0.059,1.616 c -0.769,-1.354 -2.148,-2.232 -3.853,-2.232 -2.514,0 -4.476,1.984 -4.388,4.584 0.091,2.601 2.198,4.584 4.703,4.584 1.704,0 3.028,-0.882 3.694,-2.231 l 0.076,2.036 z" /></g><g
           transform="translate(146.3525,291.9375)"
           id="g3775"><path
             id="path3777"
             style="fill:#2d2a2d;fill-opacity:1;fill-rule:nonzero;stroke:none"
             d="M 0,0 C 0.075,2.086 -1.484,3.734 -3.574,3.734 -5.664,3.734 -7.35,2.086 -7.422,0 -7.499,-2.09 -5.921,-3.736 -3.832,-3.736 -1.743,-3.736 -0.073,-2.09 0,0 M 1.049,4.389 0.741,-4.388 h -0.894 l 0.066,1.983 c -0.781,-1.321 -2.163,-2.179 -3.848,-2.179 -2.493,0 -4.477,1.984 -4.387,4.584 0.094,2.601 2.217,4.584 4.709,4.584 1.686,0 3.003,-0.859 3.692,-2.181 L 0.15,4.389 Z" /></g><g
           transform="translate(172.77,293.1152)"
           id="g3779"><path
             id="path3781"
             style="fill:#2d2a2d;fill-opacity:1;fill-rule:nonzero;stroke:none"
             d="m 0,0 -0.199,-5.565 h -0.88 L -0.884,0 c 0.058,1.669 -0.874,2.557 -2.243,2.557 -1.475,0 -2.665,-0.979 -2.744,-3.227 L -6.047,-5.565 H -6.919 L -6.725,0 c 0.058,1.669 -0.81,2.557 -2.159,2.557 -1.436,0 -2.754,-0.979 -2.836,-3.227 l -0.17,-4.895 h -0.877 l 0.304,8.776 h 0.883 L -11.635,1.7 c 0.692,1.211 1.764,1.706 2.885,1.706 1.281,0 2.26,-0.637 2.677,-1.793 C -5.4,2.845 -4.255,3.406 -3.08,3.406 -1.222,3.406 0.076,2.192 0,0" /></g><g
           transform="translate(185.561,296.3262)"
           id="g3783"><path
             id="path3785"
             style="fill:#2d2a2d;fill-opacity:1;fill-rule:nonzero;stroke:none"
             d="M 0,0 H 0.879 L 0.57,-8.776 h -0.876 z m -0.162,2.824 c 0.011,0.373 0.339,0.687 0.725,0.687 0.387,0 0.69,-0.314 0.68,-0.687 C 1.225,2.442 0.897,2.126 0.511,2.126 c -0.385,0 -0.69,0.316 -0.673,0.698" /></g><g
           transform="translate(206.6523,293.0098)"
           id="g3787"><path
             id="path3789"
             style="fill:#2d2a2d;fill-opacity:1;fill-rule:nonzero;stroke:none"
             d="M 0,0 -0.191,-5.46 H -1.083 L -0.893,0 c 0.058,1.609 -0.841,2.662 -2.487,2.662 -1.72,0 -3.113,-1.119 -3.199,-3.493 L -6.741,-5.46 h -0.874 l 0.305,8.776 h 0.875 L -6.493,1.649 C -5.778,2.95 -4.636,3.512 -3.282,3.512 -1.194,3.512 0.073,2.119 0,0" /></g><g
           transform="translate(227.0815,291.9375)"
           id="g3791"><path
             id="path3793"
             style="fill:#2d2a2d;fill-opacity:1;fill-rule:nonzero;stroke:none"
             d="m 0,0 c 0.08,2.086 -1.491,3.734 -3.582,3.734 -2.09,0 -3.782,-1.648 -3.856,-3.734 -0.077,-2.09 1.504,-3.736 3.59,-3.736 2.09,0 3.784,1.646 3.848,3.736 M 1.032,4.389 0.745,-3.968 c -0.089,-2.636 -2.09,-4.122 -4.513,-4.122 -2.054,0 -3.475,0.822 -4.074,2.108 l 0.793,0.432 c 0.421,-0.929 1.377,-1.699 3.308,-1.699 2.201,0 3.538,1.285 3.609,3.281 l 0.058,1.616 c -0.762,-1.354 -2.148,-2.232 -3.853,-2.232 -2.507,0 -4.478,1.984 -4.385,4.584 0.089,2.601 2.193,4.584 4.699,4.584 1.705,0 3.029,-0.882 3.708,-2.231 L 0.16,4.389 Z" /></g><g
           transform="translate(252.2754,289.5674)"
           id="g3795"><path
             id="path3797"
             style="fill:#2d2a2d;fill-opacity:1;fill-rule:nonzero;stroke:none"
             d="M 0,0 -3.804,4.146 C -5.376,3.565 -6.008,2.389 -6.049,1.261 -6.106,-0.354 -4.96,-1.315 -3.118,-1.315 -1.874,-1.315 -0.806,-0.876 0,0 m 1.979,-2.16 -1.367,1.496 c -0.86,-0.949 -2.096,-1.55 -3.725,-1.55 -2.422,0 -3.959,1.338 -3.884,3.464 0.058,1.521 0.944,2.879 2.564,3.578 -0.539,0.646 -0.93,1.364 -0.895,2.4 0.067,2.02 1.76,3.233 3.584,3.233 1.549,0 2.869,-0.859 3.343,-2.313 L 0.811,7.687 C 0.478,8.85 -0.508,9.566 -1.758,9.566 -3.21,9.566 -4.335,8.62 -4.38,7.268 -4.42,6.272 -3.865,5.562 -3.13,4.793 L 0.566,0.772 C 0.944,1.418 1.235,2.242 1.39,3.216 L 2.201,2.736 C 2.006,1.771 1.679,0.861 1.195,0.09 l 1.621,-1.774 z" /></g><g
           transform="translate(284.5674,293.1152)"
           id="g3799"><path
             id="path3801"
             style="fill:#2d2a2d;fill-opacity:1;fill-rule:nonzero;stroke:none"
             d="M 0,0 -0.198,-5.565 H -1.071 L -0.876,0 c 0.057,1.669 -0.877,2.557 -2.249,2.557 -1.475,0 -2.667,-0.979 -2.747,-3.227 L -6.04,-5.565 H -6.921 L -6.726,0 c 0.058,1.669 -0.801,2.557 -2.156,2.557 -1.436,0 -2.756,-0.979 -2.836,-3.227 l -0.167,-4.895 h -0.881 l 0.305,8.776 h 0.881 L -11.632,1.7 c 0.69,1.211 1.756,1.706 2.882,1.706 1.279,0 2.258,-0.637 2.679,-1.793 0.678,1.232 1.815,1.793 2.994,1.793 C -1.218,3.406 0.076,2.192 0,0" /></g><g
           transform="translate(304.5576,296.3262)"
           id="g3803"><path
             id="path3805"
             style="fill:#2d2a2d;fill-opacity:1;fill-rule:nonzero;stroke:none"
             d="m 0,0 -0.306,-8.776 h -0.881 l 0.053,1.663 c -0.708,-1.299 -1.846,-1.86 -3.201,-1.86 -2.091,0 -3.356,1.389 -3.282,3.51 L -7.422,0 h 0.89 l -0.194,-5.463 c -0.053,-1.614 0.846,-2.662 2.488,-2.662 1.722,0 3.113,1.118 3.197,3.488 L -0.881,0 Z" /></g><g
           transform="translate(323.1567,289.8477)"
           id="g3807"><path
             id="path3809"
             style="fill:#2d2a2d;fill-opacity:1;fill-rule:nonzero;stroke:none"
             d="m 0,0 c -0.053,-1.438 -1.355,-2.494 -3.228,-2.494 -1.758,0 -2.887,0.823 -3.267,1.949 l 0.764,0.442 c 0.29,-0.948 1.21,-1.543 2.535,-1.543 1.225,0 2.275,0.541 2.31,1.646 0.089,2.387 -5.282,1.016 -5.167,4.176 0.053,1.39 1.28,2.498 3.073,2.498 1.422,0 2.48,-0.682 2.922,-1.758 L -0.81,4.493 c -0.337,0.913 -1.232,1.331 -2.201,1.331 -1.142,0 -2.13,-0.595 -2.165,-1.648 C -5.256,1.821 0.106,3.214 0,0" /></g><g
           transform="translate(335.623,296.3262)"
           id="g3811"><path
             id="path3813"
             style="fill:#2d2a2d;fill-opacity:1;fill-rule:nonzero;stroke:none"
             d="M 0,0 H 0.88 L 0.576,-8.776 h -0.882 z m -0.16,2.824 c 0.009,0.373 0.342,0.687 0.726,0.687 0.383,0 0.691,-0.314 0.68,-0.687 C 1.228,2.442 0.899,2.126 0.512,2.126 c -0.38,0 -0.69,0.316 -0.672,0.698" /></g><g
           transform="translate(348.6562,291.9375)"
           id="g3815"><path
             id="path3817"
             style="fill:#2d2a2d;fill-opacity:1;fill-rule:nonzero;stroke:none"
             d="m 0,0 c 0.098,2.601 2.126,4.584 4.779,4.584 1.723,0 3.157,-0.882 3.741,-2.252 L 7.785,1.913 C 7.319,3.015 6.155,3.734 4.744,3.734 2.618,3.734 0.97,2.086 0.894,0 0.829,-2.09 2.36,-3.736 4.486,-3.736 c 1.43,0 2.611,0.733 3.228,1.819 L 8.428,-2.352 C 7.684,-3.706 6.178,-4.584 4.46,-4.584 1.808,-4.584 -0.089,-2.6 0,0" /></g><g
           transform="translate(375.5713,291.9375)"
           id="g3819"><path
             id="path3821"
             style="fill:#2d2a2d;fill-opacity:1;fill-rule:nonzero;stroke:none"
             d="m 0,0 c 0.094,2.601 2.127,4.584 4.772,4.584 1.729,0 3.164,-0.882 3.753,-2.252 L 7.791,1.913 C 7.319,3.015 6.146,3.734 4.75,3.734 2.623,3.734 0.968,2.086 0.892,0 0.825,-2.09 2.361,-3.736 4.483,-3.736 c 1.425,0 2.607,0.733 3.223,1.819 L 8.434,-2.352 C 7.68,-3.706 6.173,-4.584 4.462,-4.584 1.803,-4.584 -0.088,-2.6 0,0" /></g><g
           transform="translate(403.8584,291.9375)"
           id="g3823"><path
             id="path3825"
             style="fill:#2d2a2d;fill-opacity:1;fill-rule:nonzero;stroke:none"
             d="M 0,0 C 0.071,2.086 -1.485,3.734 -3.576,3.734 -5.666,3.734 -7.356,2.086 -7.429,0 -7.5,-2.09 -5.919,-3.736 -3.833,-3.736 -1.747,-3.736 -0.078,-2.09 0,0 M -8.319,0 C -8.224,2.601 -6.11,4.584 -3.545,4.584 -0.998,4.584 0.986,2.601 0.888,0 0.805,-2.6 -1.317,-4.584 -3.868,-4.584 -6.429,-4.584 -8.41,-2.6 -8.319,0" /></g><g
           transform="translate(429.6748,293.1152)"
           id="g3827"><path
             id="path3829"
             style="fill:#2d2a2d;fill-opacity:1;fill-rule:nonzero;stroke:none"
             d="M 0,0 -0.194,-5.565 H -1.071 L -0.883,0 c 0.062,1.669 -0.875,2.557 -2.243,2.557 -1.472,0 -2.667,-0.979 -2.742,-3.227 L -6.041,-5.565 H -6.924 L -6.732,0 c 0.067,1.669 -0.8,2.557 -2.153,2.557 -1.437,0 -2.755,-0.979 -2.835,-3.227 l -0.162,-4.895 h -0.881 l 0.301,8.776 h 0.883 L -11.634,1.7 c 0.691,1.211 1.76,1.706 2.883,1.706 1.285,0 2.267,-0.637 2.679,-1.793 0.682,1.232 1.815,1.793 2.987,1.793 C -1.213,3.406 0.075,2.192 0,0" /></g><g
           transform="translate(450.6348,291.9375)"
           id="g3831"><path
             id="path3833"
             style="fill:#2d2a2d;fill-opacity:1;fill-rule:nonzero;stroke:none"
             d="m 0,0 c 0.071,2.086 -1.501,3.734 -3.591,3.734 -2.091,0 -3.779,-1.648 -3.85,-3.734 -0.07,-2.09 1.502,-3.736 3.587,-3.736 2.093,0 3.783,1.646 3.854,3.736 m 0.875,0 c -0.089,-2.6 -2.197,-4.584 -4.702,-4.584 -1.704,0 -3.03,0.878 -3.692,2.232 l -0.195,-5.543 h -0.883 l 0.43,12.284 h 0.878 L -7.354,2.353 c 0.755,1.349 2.14,2.231 3.844,2.231 2.512,0 4.481,-1.983 4.385,-4.584" /></g><g
           transform="translate(471.1865,296.3262)"
           id="g3835"><path
             id="path3837"
             style="fill:#2d2a2d;fill-opacity:1;fill-rule:nonzero;stroke:none"
             d="M 0,0 -0.302,-8.776 H -1.18 l 0.055,1.663 c -0.708,-1.299 -1.857,-1.86 -3.207,-1.86 -2.085,0 -3.355,1.389 -3.28,3.51 L -7.424,0 h 0.9 l -0.185,-5.463 c -0.063,-1.614 0.825,-2.662 2.48,-2.662 1.725,0 3.104,1.118 3.191,3.488 L -0.878,0 Z" /></g><g
           transform="translate(485.9473,295.4668)"
           id="g3839"><path
             id="path3841"
             style="fill:#2d2a2d;fill-opacity:1;fill-rule:nonzero;stroke:none"
             d="M 0,0 -0.2,-5.703 C -0.248,-7.255 0.571,-7.29 2.369,-7.129 L 2.337,-7.917 c -2.316,-0.356 -3.506,0.212 -3.431,2.214 L -0.896,0 h -1.926 l 0.029,0.859 h 1.923 l 0.084,2.198 0.9,0.254 L 0.035,0.859 H 2.639 L 2.617,0 Z" /></g><g
           transform="translate(500.5557,292.3389)"
           id="g3843"><path
             id="path3845"
             style="fill:#2d2a2d;fill-opacity:1;fill-rule:nonzero;stroke:none"
             d="M 0,0 H 7.056 C 6.931,2.144 5.464,3.333 3.742,3.333 1.74,3.333 0.243,1.951 0,0 M 7.952,-0.443 C 7.948,-0.579 7.923,-0.716 7.917,-0.857 H -0.04 c 0.147,-1.985 1.606,-3.281 3.614,-3.281 1.436,0 2.554,0.662 3.084,1.599 l 0.763,-0.462 c -0.765,-1.19 -2.157,-1.984 -3.897,-1.984 -2.702,0 -4.545,1.93 -4.45,4.584 0.086,2.58 2.018,4.584 4.698,4.584 2.675,0 4.257,-2.217 4.18,-4.626" /></g><g
           transform="translate(524.7383,296.4512)"
           id="g3847"><path
             id="path3849"
             style="fill:#2d2a2d;fill-opacity:1;fill-rule:nonzero;stroke:none"
             d="m 0,0 -0.03,-0.843 c -1.515,0 -2.976,-0.935 -3.041,-3.178 l -0.181,-4.88 h -0.875 l 0.307,8.776 h 0.878 L -3.006,-1.849 C -2.36,-0.461 -1.2,0 0,0" /></g><g
           transform="translate(542.041,289.8477)"
           id="g3851"><path
             id="path3853"
             style="fill:#2d2a2d;fill-opacity:1;fill-rule:nonzero;stroke:none"
             d="m 0,0 c -0.054,-1.438 -1.353,-2.494 -3.232,-2.494 -1.755,0 -2.889,0.823 -3.265,1.949 l 0.772,0.442 c 0.288,-0.948 1.211,-1.543 2.529,-1.543 1.225,0 2.281,0.541 2.318,1.646 0.085,2.387 -5.283,1.016 -5.172,4.176 0.045,1.39 1.285,2.498 3.075,2.498 1.422,0 2.478,-0.682 2.913,-1.758 L -0.809,4.493 c -0.337,0.913 -1.232,1.331 -2.2,1.331 -1.144,0 -2.124,-0.595 -2.164,-1.648 C -5.25,1.821 0.119,3.214 0,0" /></g><g
           transform="translate(332.6045,357.335)"
           id="g3855"><path
             id="path3857"
             style="fill:#000000;fill-opacity:1;fill-rule:nonzero;stroke:none"
             d="M 0,0 -15.415,-33.154 H 15.414 Z" /></g><g
           transform="translate(178.9683,324.8369)"
           id="g3859"><path
             id="path3861"
             style="fill:#2d2a2d;fill-opacity:1;fill-rule:nonzero;stroke:none"
             d="m 0,0 v 13.524 h 16.304 v 4.477 H 0 v 13.008 h 7.136 v 4.604 H -4.997 V -4.606 H 18.258 V 0 Z" /></g><path
           id="path3863"
           style="fill:#000000;fill-opacity:1;fill-rule:nonzero;stroke:none"
           d="m 196.902,360.45 h -5.361 v -4.604 h 5.361 z" /><g
           transform="translate(524.5264,324.8369)"
           id="g3865"><path
             id="path3867"
             style="fill:#2d2a2d;fill-opacity:1;fill-rule:nonzero;stroke:none"
             d="m 0,0 v 13.524 h 16.303 v 4.477 H 0 v 13.008 h 7.136 v 4.604 H -4.998 V -4.606 H 18.256 V 0 Z" /></g><path
           id="path3869"
           style="fill:#000000;fill-opacity:1;fill-rule:nonzero;stroke:none"
           d="m 542.462,360.45 h -5.361 v -4.604 h 5.361 z" /></g></g></g></svg>